# xmcd
#
# Track frame offsets:
#	150
#	10867
#	37384
#	47729
#	58708
#	68908
#	79481
#	93017
#	103141
#	114537
#	126848
#	136691
#	147680
#
# Disc length: 2130 seconds
#
# Revision: 0
# Processed by: cddbd v1.5.2PL0 Copyright (c) Steve Scherf et al.
# Submitted via: dBpowerAMP V4.0
#
DISCID=be08500d
DTITLE=Johny Winter - Legends of Blues
DYEAR=2003
DGENRE=Blues
TTITLE0=Livin in the Blues
TTITLE1=Goin down slow
TTITLE2=Thats what Love Does
TTITLE3=I cant believe you Wanna Leave
TTITLE4=Shed so many Tears
TTITLE5=Oh My Darling
TTITLE6=By the Light of the Silvery Moon
TTITLE7=Out of Sight
TTITLE8=The Guy You Left Behind
TTITLE9=Leivin Blues
TTITLE10=Five after Four AM
TTITLE11=Gangster of love
TTITLE12=Leave my Woman Alone
EXTD=
EXTT0=
EXTT1=
EXTT2=
EXTT3=
EXTT4=
EXTT5=
EXTT6=
EXTT7=
EXTT8=
EXTT9=
EXTT10=
EXTT11=
EXTT12=
PLAYORDER=
